<?xml version="1.0" encoding="utf-8"?>
<!-- Generator: Adobe Illustrator 25.0.0, SVG Export Plug-In . SVG Version: 6.00 Build 0)  -->
<svg version="1.1" id="Layer_1" xmlns="http://www.w3.org/2000/svg" xmlns:xlink="http://www.w3.org/1999/xlink" x="0px" y="0px"
	 viewBox="0 0 50 50" style="enable-background:new 0 0 50 50;" xml:space="preserve">
<style type="text/css">
	.st0{fill:#DEDEDE;}
</style>
<g id="Bootstrap">
	<path class="st0" d="M31.2,27.9c-1-0.8-2.3-1.2-3.6-1.1h-8.9v9.1h9c1.3,0,2.5-0.4,3.5-1.2c0.9-0.9,1.4-2.1,1.4-3.4
		C32.7,30,32.2,28.8,31.2,27.9z M30,22c0.9-0.8,1.3-1.9,1.2-3c0.1-1.1-0.3-2.3-1.1-3.1c-0.9-0.6-2-0.9-3.1-0.9h-8.3v8h8.3
		C28.2,23.1,29.2,22.7,30,22L30,22z M41.7,0H8.3C3.7,0,0,3.7,0,8.3v33.3C0,46.3,3.7,50,8.3,50h33.3c4.6,0,8.3-3.7,8.3-8.3V8.3
		C50,3.7,46.3,0,41.7,0z M37.1,35.1c-0.4,1-1.1,1.9-1.9,2.6c-1,0.8-2.1,1.4-3.4,1.7c-1.6,0.5-3.2,0.7-4.9,0.6H13.6V10.9h14.2
		c2.2-0.1,4.4,0.5,6.2,1.8c1.6,1.3,2.5,3.3,2.4,5.4c0.1,1.3-0.3,2.6-1,3.8c-0.8,1.1-1.8,1.9-3.1,2.4l0,0c1.7,0.3,3.2,1.2,4.2,2.5
		c1,1.5,1.5,3.2,1.4,5C37.9,33,37.6,34.1,37.1,35.1z"/>
</g>
</svg>
