<?xml version="1.0" encoding="utf-8"?>
<!-- Generator: Adobe Illustrator 25.0.0, SVG Export Plug-In . SVG Version: 6.00 Build 0)  -->
<svg version="1.1" id="Layer_1" xmlns="http://www.w3.org/2000/svg" xmlns:xlink="http://www.w3.org/1999/xlink" x="0px" y="0px"
	 viewBox="0 0 50 50" style="enable-background:new 0 0 50 50;" xml:space="preserve">
<style type="text/css">
	.st0{fill:#DEDEDE;}
</style>
<g id="_x31_1_x2C__Illustrator_x2C__Adobe_x2C__Ai">
	<g>
		<path class="st0" d="M0,0v50h50V0H0z M47.8,47.8H2.2V2.2h45.6L47.8,47.8L47.8,47.8z"/>
		<g>
			<g id="XMLID_1211_">
				<g id="XMLID_1220_">
					<g>
						<path id="XMLID_130_" class="st0" d="M17.3,28.5l-1.8,6c0,0.2-0.1,0.3-0.3,0.3h-3c-0.2,0-0.3-0.1-0.2-0.3
							c1.6-5.3,4.3-14,6.2-20c0.1-0.3,0.2-0.7,0.2-1.9c0-0.1,0.1-0.2,0.2-0.2h4.1c0.1,0,0.2,0,0.2,0.2c2.2,7.1,4.6,14.8,6.8,21.9
							c0.1,0.2,0,0.3-0.2,0.3h-3.3c-0.1,0-0.2-0.1-0.3-0.2l-1.9-6.1L17.3,28.5L17.3,28.5z M23.3,25.1c-0.6-2.3-2-6.9-2.6-9.4h0
							c-0.4,2.3-1.7,6.2-2.5,9.4H23.3z"/>
					</g>
				</g>
				<g id="XMLID_1212_">
					<g>
						<path id="XMLID_137_" class="st0" d="M32.7,13.6c0-1.3,0.8-2.1,2-2.1c1.2,0,1.9,0.9,1.9,2.1c0,1.3-0.8,2.1-1.9,2.1
							C33.5,15.7,32.7,14.9,32.7,13.6z M32.9,18.3c0-0.2,0.1-0.3,0.2-0.3h3.1c0.2,0,0.2,0,0.2,0.3v16.2c0,0.2-0.1,0.3-0.2,0.3h-3
							c-0.2,0-0.3-0.1-0.3-0.3L32.9,18.3L32.9,18.3z"/>
					</g>
				</g>
			</g>
		</g>
	</g>
</g>
<g id="Layer_1_1_">
</g>
</svg>
