<?xml version="1.0" encoding="utf-8"?>
<!-- Generator: Adobe Illustrator 25.0.0, SVG Export Plug-In . SVG Version: 6.00 Build 0)  -->
<svg version="1.1" id="Layer_1" xmlns="http://www.w3.org/2000/svg" xmlns:xlink="http://www.w3.org/1999/xlink" x="0px" y="0px"
	 viewBox="0 0 50 50" style="enable-background:new 0 0 50 50;" xml:space="preserve">
<style type="text/css">
	.st0{fill:#DEDEDE;}
</style>
<path class="st0" d="M0,0v50h50V0H0z M27.7,37.9c0,6.3-3,8.5-7.9,8.5c-1.2,0-2.7-0.2-3.7-0.5l0.6-4.1c0.7,0.2,1.6,0.4,2.6,0.4
	c2.1,0,3.4-1,3.4-4.4v-14h5V37.9z M37.3,46.4c-2.5,0-5-0.7-6.3-1.4l1-4.1c1.3,0.7,3.4,1.4,5.6,1.4c2.3,0,3.5-1,3.5-2.4
	c0-1.4-1.1-2.2-3.7-3.1c-3.7-1.3-6.1-3.4-6.1-6.6c0-3.8,3.2-6.7,8.4-6.7c2.5,0,4.3,0.5,5.7,1.1l-1.1,4c-0.9-0.4-2.5-1.1-4.6-1.1
	c-2.2,0-3.2,1-3.2,2.1c0,1.4,1.2,2,4.1,3.2c3.9,1.4,5.7,3.5,5.7,6.7C46.2,43.3,43.4,46.4,37.3,46.4z"/>
</svg>
