<?xml version="1.0" encoding="utf-8"?>
<!-- Generator: Adobe Illustrator 25.0.0, SVG Export Plug-In . SVG Version: 6.00 Build 0)  -->
<svg version="1.1" id="Layer_1" xmlns="http://www.w3.org/2000/svg" xmlns:xlink="http://www.w3.org/1999/xlink" x="0px" y="0px"
	 viewBox="0 0 50 50" style="enable-background:new 0 0 50 50;" xml:space="preserve">
<style type="text/css">
	.st0{fill:#DEDEDE;}
</style>
<g id="_x32_3_x2C__Photoshop_x2C__Adobe">
	<g>
		<path class="st0" d="M0,0v50h50V0H0z M47.8,47.8H2.2V2.2h45.6L47.8,47.8L47.8,47.8z"/>
		<g>
			<g>
				<g id="XMLID_1346_">
					<g>
						<path id="XMLID_108_" class="st0" d="M12.1,12.1c0-0.2,0-0.2,0.2-0.2c1.1,0,3.3-0.1,5.6-0.1c5.8,0,8,3.4,8,7.4
							c0,5.5-4.1,7.5-8.4,7.5c-0.8,0-1.6,0-1.8,0v7.8c0,0.2-0.1,0.3-0.2,0.3h-3.1c-0.1,0-0.2-0.1-0.2-0.2L12.1,12.1L12.1,12.1z
							 M15.7,23.3c0.2,0,0.7,0.1,1.9,0.1c2.3,0,4.6-0.7,4.6-4.1c0-2.8-1.5-4.2-4.3-4.2c-1.2,0-2,0-2.2,0.1V23.3z"/>
					</g>
				</g>
				<g id="XMLID_1340_">
					<g>
						<path id="XMLID_66_" class="st0" d="M33.3,20.8c-1.4,0-1.8,0.9-1.8,1.5c0,0.8,0.4,1.3,2.6,2.3c3,1.4,4.3,2.7,4.3,5.2
							c0,3.4-2.2,5.4-5.4,5.4c-1.5,0-3.5-0.1-4.7-1c-0.1-0.1-0.2-0.2-0.2-0.3v-3.2c0-0.2,0.1-0.2,0.2-0.2c1.5,1.1,3.2,1.5,4.7,1.5
							c1.3,0,1.8-0.9,1.8-1.6c0-0.9-0.3-1.4-2.4-2.4c-3-1.4-4.2-2.7-4.2-5.2c0-2.8,2.1-5.1,5.5-5.1c1.8,0,3,0,3.8,0.6
							c0.1,0.1,0.2,0.2,0.2,0.4v2.8c0,0.2-0.1,0.3-0.3,0.2C36.3,21,34.9,20.8,33.3,20.8z"/>
					</g>
				</g>
			</g>
		</g>
	</g>
</g>
<g id="Layer_1_1_">
</g>
</svg>
