<?xml version="1.0" encoding="utf-8"?>
<!-- Generator: Adobe Illustrator 25.0.0, SVG Export Plug-In . SVG Version: 6.00 Build 0)  -->
<svg version="1.1" id="Layer_1" xmlns="http://www.w3.org/2000/svg" xmlns:xlink="http://www.w3.org/1999/xlink" x="0px" y="0px"
	 viewBox="0 0 49.9 50" style="enable-background:new 0 0 49.9 50;" xml:space="preserve">
<style type="text/css">
	.st0{fill:#DEDEDE;}
</style>
<g>
	<path class="st0" d="M0,25c0,8.6,4.3,16.3,11.3,20.9L1.1,17.7C0.5,20,0,22.5,0,25z"/>
	<path class="st0" d="M19.1,49.3c4.3,1.1,8.9,0.9,12.9-0.2l-6.6-18.2L19.1,49.3z"/>
	<path class="st0" d="M39.5,17l-0.2-0.5c-1.1-2-2.5-3.9-2.5-6.1s1.4-4.3,3.2-5.2C35.6,1.8,30.4,0,25,0C17.3,0,10.2,3.6,5.4,9.5
		c2.7,0,6.4-0.2,6.4-0.2l0,0c1.4,0,2.3,0.9,2.3,2s-0.7,2.3-2,2.3c0,0-0.7,0-1.6,0.2l7.9,23.6l4.5-13.4l-3.6-10.2c-1.1,0-2-0.2-2-0.2
		c-1.1,0-2-0.9-2-2.3c0-1.1,0.9-2.3,2.3-2.3c0.2,0,4.5,0.2,7,0.2c2.7,0,6.8-0.2,6.8-0.2l0,0c1.4,0,2.3,0.9,2.3,2s-0.7,2.3-2,2.3
		c0,0-0.7,0-1.6,0.2l7.7,23.2l1.8-5.9c0.9-3.2,1.8-5.4,1.8-7.3C41.3,20.9,40.4,18.8,39.5,17z"/>
	<path class="st0" d="M49,18.2c-0.2,2-0.9,4.3-1.8,6.8l-6.8,19.7c5.9-4.8,9.5-12,9.5-19.7C49.9,22.7,49.5,20.4,49,18.2z"/>
</g>
</svg>
