<?xml version="1.0" encoding="utf-8"?>
<!-- Generator: Adobe Illustrator 25.0.0, SVG Export Plug-In . SVG Version: 6.00 Build 0)  -->
<svg version="1.1" id="Layer_1" xmlns="http://www.w3.org/2000/svg" xmlns:xlink="http://www.w3.org/1999/xlink" x="0px" y="0px"
	 viewBox="0 0 50 50" style="enable-background:new 0 0 50 50;" xml:space="preserve">
<style type="text/css">
	.st0{fill:#DEDEDE;}
</style>
<g id="_x33__x2C__XD_x2C__Adobe">
	<g>
		<path class="st0" d="M0,0v50h50V0H0z M47.8,47.8H2.2V2.2h45.6L47.8,47.8L47.8,47.8z"/>
		<g>
			<path class="st0" d="M26,13.4h-3.9l-4.2,8.8l-4.2-8.8h-4l5.7,11.4L9.4,36.4h4l4.3-8.9l4.3,8.9h4.3l-6.1-11.8L26,13.4z M36.8,13.4
				v5.9c0,0-0.7,0-1.1,0c-3.8,0-8.5,2.5-8.5,8.8c0,4.9,2.5,8.6,7.8,8.6c3.9,0,5.7-1.3,5.7-1.3V13.4H36.8z M36.8,33.2
				c0,0-0.4,0.2-1.5,0.2c-1,0-4.3-0.5-4.3-5.6c0-5.1,3.7-5.5,4.6-5.5c0.9,0,1.2,0.2,1.2,0.2L36.8,33.2L36.8,33.2z"/>
		</g>
	</g>
</g>
<g id="Layer_1_1_">
</g>
</svg>
